<svg width="24" height="24" fill="none" xmlns="http://www.w3.org/2000/svg"><path d="M20 17v-5.548 0c0-.534 0-.802-.065-1.05a2 2 0 0 0-.28-.618c-.145-.212-.345-.388-.748-.74l-4.8-4.2c-.746-.653-1.12-.98-1.54-1.104a1.99 1.99 0 0 0-1.134 0c-.42.124-.793.45-1.539 1.103h-.001l-4.8 4.2-.001.002c-.402.351-.603.527-.747.74a2 2 0 0 0-.28.617C4 10.651 4 10.918 4 11.452V17c0 .932 0 1.398.152 1.765a2 2 0 0 0 1.083 1.083C5.602 20 6.068 20 7 20c.932 0 1.398 0 1.765-.152a2 2 0 0 0 1.083-1.083C10 18.398 10 17.932 10 17v-1a2 2 0 1 1 4 0v1c0 .932 0 1.398.152 1.765a2 2 0 0 0 1.083 1.083C15.602 20 16.068 20 17 20c.932 0 1.398 0 1.765-.152a2 2 0 0 0 1.083-1.083C20 18.398 20 17.932 20 17Z" stroke="#0C0F1E" stroke-width="2" stroke-linecap="round" stroke-linejoin="round"/></svg>