<svg width="24" height="24" fill="none" xmlns="http://www.w3.org/2000/svg"><path d="M4 20H3a1 1 0 0 0 1 1v-1Zm16 1a1 1 0 1 0 0-2v2ZM4 16l-.707-.707A1 1 0 0 0 3 16h1ZM14.869 5.131l-.707-.707.707.707Zm2.262 0-.707.707.707-.707ZM18.87 6.87l.707-.708-.707.708Zm0 2.262-.707-.707.707.707ZM8 20v1a1 1 0 0 0 .707-.293L8 20ZM19.537 7.691l.95-.309-.95.309Zm0 .618-.951-.31.95.31ZM15.69 4.463l-.309-.95.309.95Zm.618 0 .31-.95-.31.95Zm-3.602 2.83a1 1 0 1 0-1.414 1.414l1.414-1.414Zm2.586 5.414a1 1 0 0 0 1.414-1.414l-1.414 1.414ZM4 21h16v-2H4v2Zm1-1v-4H3v4h2Zm-.293-3.293L15.576 5.838 14.16 4.424 3.293 15.293l1.414 1.414ZM16.424 5.838l1.738 1.738 1.414-1.415-1.738-1.737-1.414 1.414Zm1.738 2.586L7.292 19.293l1.415 1.414L19.576 9.838 18.16 8.424ZM8 19H4v2h4v-2ZM18.162 7.576c.21.21.323.325.4.414.067.08.044.071.024.01l1.902-.618a2.021 2.021 0 0 0-.402-.686c-.141-.166-.324-.348-.51-.535L18.16 7.576Zm1.414 2.262c.186-.186.369-.368.51-.534.148-.174.308-.396.402-.686L18.586 8c.02-.061.043-.07-.025.01a7.64 7.64 0 0 1-.4.414l1.415 1.414ZM18.586 8l1.902.618a2 2 0 0 0 0-1.236L18.586 8Zm-3.01-2.162c.21-.21.325-.323.414-.4.08-.067.071-.044.01-.024l-.618-1.902c-.29.094-.512.254-.687.402-.165.141-.347.324-.534.51l1.415 1.414Zm2.262-1.414c-.186-.186-.368-.369-.533-.51a2.02 2.02 0 0 0-.687-.402L16 5.414c-.061-.02-.07-.043.01.025.09.076.204.19.414.4l1.415-1.415ZM16 5.414l.618-1.902a2 2 0 0 0-1.236 0L16 5.414Zm-4.707 3.293 4 4 1.414-1.414-4-4-1.414 1.414Z" fill="#555761"/></svg>