<svg width="24" height="24" viewBox="0 0 24 24" fill="none" xmlns="http://www.w3.org/2000/svg">
<path d="M3 17L7.76798 11.4374C8.19174 10.943 8.40322 10.6958 8.65469 10.6067C8.87536 10.5285 9.11735 10.5302 9.33691 10.6115C9.58712 10.7041 9.79506 10.9541 10.2119 11.4543L12.8783 14.6541C13.2674 15.1209 13.4615 15.3543 13.6981 15.4481C13.9059 15.5306 14.1361 15.541 14.3506 15.4777C14.5947 15.4057 14.8096 15.1908 15.2393 14.7611L15.7363 14.264C16.1738 13.8265 16.3926 13.6078 16.6402 13.5364C16.8576 13.4736 17.0896 13.4865 17.2988 13.5729C17.537 13.6712 17.7307 13.9129 18.1172 14.396L21.0005 18.0001M21 7.19995V16.8C21 17.9201 21.0002 18.4802 20.7822 18.908C20.5905 19.2844 20.2841 19.5902 19.9078 19.782C19.48 20 18.9203 20 17.8002 20H6.2002C5.08009 20 4.51962 20 4.0918 19.782C3.71547 19.5902 3.40973 19.2844 3.21799 18.908C3 18.4802 3 17.9201 3 16.8V7.19995C3 6.07985 3 5.51986 3.21799 5.09204C3.40973 4.71572 3.71547 4.40973 4.0918 4.21799C4.51962 4 5.08009 4 6.2002 4H17.8002C18.9203 4 19.48 4 19.9078 4.21799C20.2841 4.40973 20.5905 4.71572 20.7822 5.09204C21.0002 5.51986 21 6.07985 21 7.19995ZM15 10C14.4477 10 14 9.55228 14 9C14 8.44772 14.4477 8 15 8C15.5523 8 16 8.44772 16 9C16 9.55228 15.5523 10 15 10Z" stroke="#0C0F1E" stroke-width="2" stroke-linecap="round" stroke-linejoin="round"/>
</svg>
