<svg width="24" height="24" viewBox="0 0 24 24" fill="none" xmlns="http://www.w3.org/2000/svg">
<path d="M9.70711 8.29289C9.31658 7.90237 8.68342 7.90237 8.29289 8.29289C7.90237 8.68342 7.90237 9.31658 8.29289 9.70711L9.70711 8.29289ZM14.2928 15.707C14.6833 16.0975 15.3165 16.0975 15.707 15.707C16.0975 15.3165 16.0975 14.6833 15.707 14.2928L14.2928 15.707ZM8.29289 14.2929C7.90237 14.6834 7.90237 15.3166 8.29289 15.7071C8.68342 16.0976 9.31658 16.0976 9.70711 15.7071L8.29289 14.2929ZM15.707 9.70723C16.0975 9.3167 16.0975 8.68354 15.707 8.29302C15.3165 7.90249 14.6833 7.90249 14.2928 8.29302L15.707 9.70723ZM12 20C7.58172 20 4 16.4183 4 12H2C2 17.5228 6.47715 22 12 22V20ZM4 12C4 7.58172 7.58172 4 12 4V2C6.47715 2 2 6.47715 2 12H4ZM12 4C16.4183 4 20 7.58172 20 12H22C22 6.47715 17.5228 2 12 2V4ZM20 12C20 16.4183 16.4183 20 12 20V22C17.5228 22 22 17.5228 22 12H20ZM8.29289 9.70711L14.2928 15.707L15.707 14.2928L9.70711 8.29289L8.29289 9.70711ZM9.70711 15.7071L15.707 9.70723L14.2928 8.29302L8.29289 14.2929L9.70711 15.7071Z" fill="#0C0F1E"/>
</svg>
